<svg xmlns="http://www.w3.org/2000/svg" viewBox="0 0 16 16">
  <path fill-rule="evenodd" clip-rule="evenodd" d="M8.0026 1.33594C4.32071 1.33594 1.33594 4.32071 1.33594 8.0026C1.33594 11.6845 4.32071 14.6693 8.0026 14.6693C11.6845 14.6693 14.6693 11.6845 14.6693 8.0026C14.6693 4.32071 11.6845 1.33594 8.0026 1.33594ZM6.66927 7.33594C6.66927 6.96775 6.96775 6.66927 7.33594 6.66927H8.0026C8.37079 6.66927 8.66927 6.96775 8.66927 7.33594V10.6693C8.66927 11.0375 8.37079 11.3359 8.0026 11.3359C7.63441 11.3359 7.33594 11.0375 7.33594 10.6693V8.0026C6.96775 8.0026 6.66927 7.70413 6.66927 7.33594ZM8.0026 4.66927C7.63441 4.66927 7.33594 4.96775 7.33594 5.33594C7.33594 5.70413 7.63441 6.0026 8.0026 6.0026C8.37079 6.0026 8.66927 5.70413 8.66927 5.33594C8.66927 4.96775 8.37079 4.66927 8.0026 4.66927Z"/>
</svg>